<svg width="36" height="36" viewBox="0 0 36 36" fill="none" xmlns="http://www.w3.org/2000/svg">
<g clip-path="url(#clip0_1_1191)">
<path d="M34.9005 0H1.1055C0.812303 0 0.531115 0.116472 0.323793 0.323794C0.116472 0.531115 0 0.812303 0 1.1055L0 5.7405H18C20.2181 5.74209 22.3943 6.34514 24.2968 7.48546C26.1994 8.62578 27.7571 10.2607 28.8042 12.2161C29.8512 14.1715 30.3484 16.3743 30.2428 18.5899C30.1372 20.8055 29.4328 22.951 28.2045 24.798H35.97V1.1055C35.9717 0.817982 35.8607 0.541247 35.6607 0.3346C35.4608 0.127954 35.1879 0.00784022 34.9005 0ZM5.7405 18C5.73772 15.5806 6.4529 13.2147 7.7955 11.202H0V34.902C0.000195345 35.0468 0.0289781 35.1901 0.0846963 35.3237C0.140414 35.4573 0.221971 35.5786 0.324686 35.6806C0.4274 35.7826 0.549251 35.8634 0.683244 35.9182C0.817236 35.973 0.960734 36.0008 1.1055 36H34.9005C35.1921 36 35.4718 35.8842 35.678 35.678C35.8842 35.4718 36 35.1921 36 34.9005V30.2595H18C14.7486 30.2595 11.6303 28.9679 9.33122 26.6688C7.03212 24.3697 5.7405 21.2514 5.7405 18Z" fill="#FF6745"/>
<path d="M25.88 17.5171C24.9477 17.8746 23.9735 18.1111 22.9811 18.2209C23.0159 17.8314 23.0057 17.4393 22.9506 17.0522C23.9314 16.2089 24.7734 15.2165 25.4455 14.1114C25.6003 13.8604 25.6499 13.5586 25.5836 13.2714C25.5173 12.9841 25.3405 12.7346 25.0915 12.5768C24.8425 12.419 24.5413 12.3658 24.2533 12.4285C23.9652 12.4913 23.7135 12.6651 23.5527 12.9122C23.1135 13.6237 22.5958 14.2838 22.0093 14.8799C21.7354 14.5295 21.4119 14.221 21.0489 13.964C21.0662 13.306 21.0134 12.6481 20.8914 12.0013C20.7262 11.1308 20.4878 10.2758 20.1788 9.44544C20.1284 9.30714 20.0513 9.18013 19.9518 9.0717C19.8523 8.96328 19.7324 8.87557 19.5989 8.8136C19.4654 8.75164 19.321 8.71664 19.1739 8.71062C19.0269 8.7046 18.8801 8.72767 18.742 8.77851C18.5873 8.83187 18.4469 8.9201 18.3317 9.03639C18.1809 9.18792 18.0761 9.37911 18.0296 9.58777C17.9831 9.79642 17.9966 10.014 18.0687 10.2153C18.1704 10.482 18.2555 10.7208 18.3317 10.9902C18.4426 11.3492 18.5358 11.6863 18.6112 12.0013C18.6871 12.3841 18.741 12.7709 18.7725 13.1599C18.3846 13.1174 17.9927 13.1276 17.6076 13.1904C16.7624 12.2095 15.7694 11.3664 14.6643 10.6916C14.4128 10.5428 14.1133 10.4979 13.8293 10.5663C13.5452 10.6348 13.299 10.8112 13.143 11.0582C12.9869 11.3052 12.9333 11.6033 12.9934 11.8892C13.0535 12.1751 13.2227 12.4263 13.4651 12.5895C14.1771 13.0205 14.8388 13.5297 15.4379 14.1075C15.0869 14.3824 14.7768 14.7057 14.5169 15.0679C12.9684 15.0675 11.4343 15.3651 9.99834 15.9444C9.72676 16.0519 9.5079 16.2613 9.38839 16.5278C9.26888 16.7943 9.25818 17.097 9.35855 17.3712C9.45893 17.6455 9.66245 17.8698 9.92576 17.9962C10.1891 18.1227 10.4913 18.1413 10.7682 18.0481C11.7145 17.6812 12.7042 17.4379 13.7128 17.324C13.7128 17.4765 13.6874 17.6289 13.6874 17.7801C13.6894 18.0174 13.7081 18.2542 13.7433 18.4889C12.7607 19.3314 11.9171 20.3234 11.2433 21.4284C11.1351 21.5977 11.0744 21.793 11.0678 21.9938C11.0612 22.1946 11.1089 22.3935 11.2057 22.5695C11.3026 22.7455 11.445 22.8922 11.6182 22.9941C11.7913 23.0959 11.9888 23.1493 12.1897 23.1485C12.3781 23.151 12.5642 23.1059 12.7305 23.0173C12.8969 22.9287 13.0381 22.7995 13.1411 22.6416C13.5707 21.9301 14.08 21.2699 14.6592 20.6739C14.9375 21.0216 15.2604 21.3313 15.6195 21.5949C15.6013 22.2514 15.6558 22.9079 15.7821 23.5524C15.945 24.4235 16.1834 25.2787 16.4948 26.1083C16.5768 26.3192 16.7209 26.5003 16.9081 26.6275C17.0952 26.7548 17.3165 26.8222 17.5428 26.821C17.6735 26.8211 17.8033 26.7987 17.9265 26.7549C18.0787 26.6971 18.2169 26.6075 18.3317 26.492C18.4829 26.3417 18.5879 26.1514 18.6345 25.9435C18.6811 25.7355 18.6673 25.5186 18.5947 25.3182C18.4981 25.0451 18.4079 24.8126 18.3317 24.5395C18.2199 24.1821 18.1289 23.8446 18.0586 23.527C17.9748 23.162 17.9141 22.792 17.8769 22.4193H18.3317C18.5706 22.4192 18.8091 22.4022 19.0456 22.3685C19.8869 23.3488 20.8772 24.1907 21.9801 24.8634C22.1043 24.9469 22.2441 25.0047 22.3911 25.0333C22.538 25.0619 22.6893 25.0607 22.8358 25.0299C22.9823 24.9991 23.1211 24.9392 23.2441 24.8538C23.3671 24.7684 23.4717 24.6592 23.5518 24.5327C23.6319 24.4061 23.6858 24.2649 23.7103 24.1172C23.7349 23.9695 23.7296 23.8183 23.6947 23.6727C23.6599 23.5271 23.5962 23.3899 23.5074 23.2694C23.4187 23.1488 23.3067 23.0472 23.178 22.9706C22.4677 22.53 21.8078 22.0129 21.2103 21.4284C21.5613 21.1532 21.8714 20.8294 22.1312 20.4668H22.3891C23.8475 20.4212 25.2871 20.1247 26.6447 19.5903C26.9103 19.4786 27.1228 19.2692 27.2383 19.0052C27.3538 18.7413 27.3635 18.4431 27.2652 18.1722C27.167 17.9014 26.9685 17.6786 26.7106 17.5501C26.4528 17.4215 26.1554 17.397 25.88 17.4815V17.5171ZM20.8215 17.7801V17.9833C20.7969 18.3135 20.7062 18.6354 20.555 18.9299C20.4038 19.2245 20.1951 19.4857 19.9412 19.6983C19.844 19.78 19.7408 19.8543 19.6325 19.9206C19.2372 20.1604 18.7839 20.2877 18.3215 20.289H18.1183C17.7896 20.2641 17.4691 20.1739 17.1758 20.0236C16.8824 19.8733 16.6219 19.6659 16.4097 19.4137C16.3256 19.3151 16.2491 19.2102 16.181 19.0999C15.9415 18.705 15.8141 18.2522 15.8126 17.7902V17.587C15.823 17.4595 15.8429 17.3329 15.8723 17.2084C15.9977 16.69 16.2831 16.2243 16.6879 15.8771C16.7886 15.796 16.8933 15.7201 17.0017 15.6497C17.3966 15.4101 17.8494 15.2828 18.3114 15.2813H18.5146C18.6438 15.2914 18.7721 15.3114 18.8983 15.341C19.4173 15.4678 19.8831 15.7549 20.2296 16.1617C20.3112 16.2585 20.3855 16.3612 20.4519 16.4691C20.6988 16.8623 20.8333 17.3158 20.8406 17.7801H20.8215Z" fill="white"/>
</g>
<defs>
<clipPath id="clip0_1_1191">
<rect width="36" height="36" fill="white"/>
</clipPath>
</defs>
</svg>
