<svg width="23" height="25" viewBox="0 0 23 25" fill="none" xmlns="http://www.w3.org/2000/svg">
<path fill-rule="evenodd" clip-rule="evenodd" d="M17.3454 0.644109C13.4956 -0.214703 9.50321 -0.214703 5.65338 0.644109L5.23856 0.735696C4.15536 0.976669 3.16042 1.51293 2.36452 2.28478C1.56862 3.05663 1.003 4.03378 0.730623 5.10743C-0.243541 8.94515 -0.243541 12.9647 0.730623 16.8024C0.99041 17.8263 1.51716 18.7634 2.25734 19.5184C2.99753 20.2734 3.92478 20.8193 4.94489 21.1009L5.51389 24.4908C5.53205 24.5985 5.5788 24.6993 5.64926 24.7828C5.71973 24.8663 5.81133 24.9294 5.91454 24.9655C6.01775 25.0017 6.12878 25.0096 6.23608 24.9884C6.34338 24.9672 6.44302 24.9176 6.52462 24.8449L9.86642 21.8617C12.375 22.0128 14.8924 21.8126 17.3454 21.267L17.7614 21.1754C18.8446 20.9344 19.8396 20.3981 20.6355 19.6263C21.4314 18.8544 21.997 17.8773 22.2694 16.8036C23.2435 12.9659 23.2435 8.94637 22.2694 5.10865C21.9969 4.03484 21.4311 3.05759 20.635 2.28572C19.8388 1.51386 18.8436 0.977689 17.7602 0.736917L17.3454 0.644109ZM6.68615 5.00852C6.45872 4.97528 6.22676 5.02098 6.02904 5.13796H6.01191C5.55304 5.40661 5.13945 5.74487 4.78703 6.14297C4.49336 6.48123 4.33428 6.82315 4.29268 7.15286C4.26821 7.34825 4.28534 7.54607 4.34285 7.73291L4.36487 7.74512C4.69526 8.7135 5.12599 9.64524 5.65216 10.522C6.33091 11.7534 7.16579 12.8923 8.13617 13.9107L8.16554 13.9523L8.21204 13.9864L8.24018 14.0194L8.27445 14.0487C9.29862 15.0199 10.4426 15.8571 11.6787 16.5399C13.092 17.308 13.9498 17.6707 14.4649 17.8221V17.8294C14.6154 17.8758 14.7525 17.8966 14.8907 17.8966C15.3297 17.8652 15.7453 17.6871 16.0703 17.391C16.468 17.0393 16.8045 16.6254 17.0664 16.165V16.1564C17.3124 15.6924 17.2291 15.2552 16.8743 14.9585C16.1621 14.3362 15.3913 13.7841 14.5726 13.3099C14.0244 13.0132 13.4676 13.1927 13.2425 13.4931L12.7616 14.0988C12.5144 14.3992 12.0666 14.3577 12.0666 14.3577L12.0543 14.365C8.71252 13.5139 7.82047 10.1374 7.82047 10.1374C7.82047 10.1374 7.77887 9.67821 8.08845 9.44375L8.69049 8.96017C8.97927 8.72571 9.17995 8.17131 8.87037 7.62423C8.39629 6.8078 7.84431 6.03897 7.22211 5.32846C7.086 5.16162 6.89539 5.04792 6.6837 5.00729M12.3321 3.54069C12.1698 3.54069 12.0142 3.60502 11.8995 3.71952C11.7847 3.83403 11.7203 3.98933 11.7203 4.15127C11.7203 4.3132 11.7847 4.4685 11.8995 4.58301C12.0142 4.69751 12.1698 4.76184 12.3321 4.76184C13.88 4.76184 15.1648 5.26618 16.1817 6.23333C16.7042 6.76209 17.1117 7.38855 17.3784 8.07483C17.6464 8.76234 17.7688 9.49626 17.737 10.2314C17.7336 10.3116 17.7461 10.3916 17.7737 10.467C17.8013 10.5424 17.8436 10.6116 17.898 10.6706C18.0079 10.79 18.1608 10.8608 18.3231 10.8676C18.4854 10.8744 18.6437 10.8166 18.7632 10.7069C18.8828 10.5972 18.9538 10.4446 18.9606 10.2827C18.9971 9.37849 18.8468 8.47647 18.5189 7.63278C18.1895 6.78479 17.6879 6.01397 17.0456 5.36876L17.0334 5.35654C15.7718 4.15371 14.1749 3.54069 12.3321 3.54069ZM12.2905 5.54827C12.1282 5.54827 11.9726 5.61259 11.8579 5.7271C11.7431 5.84161 11.6787 5.99691 11.6787 6.15884C11.6787 6.32078 11.7431 6.47608 11.8579 6.59059C11.9726 6.70509 12.1282 6.76942 12.2905 6.76942H12.3113C13.4273 6.8488 14.2398 7.22003 14.8088 7.82938C15.3924 8.45706 15.6947 9.23737 15.6714 10.2021C15.6677 10.364 15.7286 10.5208 15.8407 10.6379C15.9528 10.7551 16.1069 10.823 16.2692 10.8267C16.4315 10.8304 16.5886 10.7697 16.7059 10.6578C16.8233 10.5459 16.8914 10.3921 16.8951 10.2302C16.9245 8.96383 16.5158 7.8709 15.7057 6.999V6.99655C14.8773 6.11 13.7405 5.64107 12.3725 5.54949L12.3517 5.54704L12.2905 5.54827ZM12.2672 7.5937C12.1854 7.58649 12.1029 7.59582 12.0247 7.62113C11.9465 7.64644 11.8742 7.68721 11.8122 7.74102C11.7501 7.79482 11.6996 7.86055 11.6635 7.93428C11.6275 8.00801 11.6067 8.08822 11.6025 8.17014C11.5982 8.25206 11.6105 8.334 11.6386 8.41107C11.6668 8.48813 11.7102 8.55875 11.7663 8.6187C11.8224 8.67864 11.8901 8.72669 11.9652 8.75997C12.0403 8.79326 12.1214 8.81109 12.2036 8.81241C12.7151 8.83928 13.0418 8.99314 13.2474 9.19952C13.4542 9.40711 13.6084 9.74049 13.6365 10.2619C13.638 10.3439 13.6561 10.4247 13.6895 10.4995C13.723 10.5743 13.7713 10.6417 13.8314 10.6975C13.8915 10.7533 13.9622 10.7965 14.0394 10.8245C14.1166 10.8525 14.1987 10.8646 14.2807 10.8603C14.3627 10.8559 14.443 10.8352 14.5167 10.7992C14.5905 10.7632 14.6563 10.7128 14.7102 10.6509C14.764 10.589 14.8048 10.517 14.8302 10.439C14.8555 10.3611 14.8649 10.2788 14.8577 10.1972C14.8185 9.46451 14.5885 8.8173 14.1174 8.34105C13.6438 7.8648 12.999 7.63278 12.2672 7.5937Z" fill="#151413"/>
</svg>
