<svg width="25" height="25" viewBox="0 0 25 25" fill="none" xmlns="http://www.w3.org/2000/svg">
<g clip-path="url(#clip0_48_67)">
<path d="M12.4417 0C9.13658 0.0154239 5.97212 1.33919 3.64052 3.68173C1.30891 6.02426 -3.59886e-05 9.19488 7.4212e-10 12.5C7.42126e-10 15.8152 1.31696 18.9946 3.66116 21.3388C6.00537 23.683 9.18479 25 12.5 25C15.8152 25 18.9946 23.683 21.3388 21.3388C23.683 18.9946 25 15.8152 25 12.5C25 9.18479 23.683 6.00537 21.3388 3.66116C18.9946 1.31696 15.8152 0 12.5 0L12.4417 0ZM17.6104 7.525C17.7146 7.52292 17.9448 7.54896 18.0948 7.67083C18.195 7.757 18.2586 7.87802 18.2729 8.00937C18.2896 8.10625 18.3104 8.32812 18.2937 8.50104C18.1062 10.4781 17.2917 15.274 16.8771 17.4875C16.7021 18.425 16.3573 18.7385 16.0229 18.7687C15.2979 18.8365 14.7469 18.2896 14.0437 17.8292C12.9437 17.1073 12.3219 16.6583 11.2542 15.9542C10.0198 15.1417 10.8198 14.6938 11.5229 13.9646C11.7073 13.7729 14.9052 10.8635 14.9677 10.6C14.975 10.5667 14.9823 10.4437 14.9094 10.3792C14.8365 10.3146 14.7281 10.3365 14.65 10.3542C14.5396 10.3799 12.7823 11.5413 9.37813 13.8385C8.87813 14.1823 8.42604 14.349 8.02188 14.3385C7.57604 14.3302 6.71771 14.0875 6.07917 13.8802C5.29583 13.625 4.67396 13.4906 4.72812 13.0583C4.7559 12.8333 5.06597 12.6031 5.65833 12.3677C9.30208 10.7802 11.7319 9.73368 12.9479 9.22812C16.4187 7.78437 17.1406 7.53333 17.6104 7.525Z" fill="#151413"/>
</g>
<defs>
<clipPath id="clip0_48_67">
<rect width="25" height="25" fill="white"/>
</clipPath>
</defs>
</svg>
