<svg width="48" height="48" viewBox="0 0 48 48" fill="none" xmlns="http://www.w3.org/2000/svg">
<rect width="48" height="48" rx="8" fill="#FF6745"/>
<path d="M24 33.8182C25.2893 33.8182 26.5661 33.5642 27.7573 33.0708C28.9485 32.5774 30.0308 31.8542 30.9425 30.9425C31.8542 30.0308 32.5774 28.9485 33.0708 27.7573C33.5642 26.5661 33.8182 25.2893 33.8182 24C33.8182 22.7107 33.5642 21.4339 33.0708 20.2427C32.5774 19.0515 31.8542 17.9692 30.9425 17.0575C30.0308 16.1458 28.9485 15.4226 27.7573 14.9292C26.5661 14.4358 25.2893 14.1818 24 14.1818C21.3961 14.1818 18.8988 15.2162 17.0575 17.0575C15.2162 18.8988 14.1818 21.3961 14.1818 24C14.1818 26.6039 15.2162 29.1012 17.0575 30.9425C18.8988 32.7838 21.3961 33.8182 24 33.8182ZM36 24C36 30.6273 30.6273 36 24 36C17.3727 36 12 30.6273 12 24C12 17.3727 17.3727 12 24 12C30.6273 12 36 17.3727 36 24ZM27.2727 28.8153L22.9091 24.4516V16.9091H25.0909V23.5484L28.8153 27.2727L27.2727 28.8153Z" fill="white"/>
</svg>
