<svg width="48" height="48" viewBox="0 0 48 48" fill="none" xmlns="http://www.w3.org/2000/svg">
<rect width="48" height="48" rx="8" fill="#FF6745"/>
<path d="M24 22C22.6739 22 21.4021 21.4732 20.4645 20.5355C19.5268 19.5979 19 18.3261 19 17C19 15.6739 19.5268 14.4021 20.4645 13.4645C21.4021 12.5268 22.6739 12 24 12C25.3261 12 26.5979 12.5268 27.5355 13.4645C28.4732 14.4021 29 15.6739 29 17C29 18.3261 28.4732 19.5979 27.5355 20.5355C26.5979 21.4732 25.3261 22 24 22ZM24 14C22.34 14 21 15.34 21 17C21 18.66 22.34 20 24 20C25.66 20 27 18.66 27 17C27 15.34 25.66 14 24 14Z" fill="white"/>
<path d="M36 30C35.44 30 35 29.56 35 29C35 28.44 35.44 28 36 28C36.56 28 37 27.56 37 27C37 25.6739 36.4732 24.4021 35.5355 23.4645C34.5979 22.5268 33.3261 22 32 22H30C29.44 22 29 21.56 29 21C29 20.44 29.44 20 30 20C31.66 20 33 18.66 33 17C33 15.34 31.66 14 30 14C29.44 14 29 13.56 29 13C29 12.44 29.44 12 30 12C31.3261 12 32.5979 12.5268 33.5355 13.4645C34.4732 14.4021 35 15.6739 35 17C35 18.24 34.56 19.36 33.8 20.24C36.78 21.04 39 23.76 39 27C39 28.66 37.66 30 36 30ZM12 30C10.34 30 9 28.66 9 27C9 23.76 11.2 21.04 14.2 20.24C13.46 19.36 13 18.24 13 17C13 15.6739 13.5268 14.4021 14.4645 13.4645C15.4021 12.5268 16.6739 12 18 12C18.56 12 19 12.44 19 13C19 13.56 18.56 14 18 14C16.34 14 15 15.34 15 17C15 18.66 16.34 20 18 20C18.56 20 19 20.44 19 21C19 21.56 18.56 22 18 22H16C14.6739 22 13.4021 22.5268 12.4645 23.4645C11.5268 24.4021 11 25.6739 11 27C11 27.56 11.44 28 12 28C12.56 28 13 28.44 13 29C13 29.56 12.56 30 12 30ZM30 36H18C16.34 36 15 34.66 15 33V31C15 27.14 18.14 24 22 24H26C29.86 24 33 27.14 33 31V33C33 34.66 31.66 36 30 36ZM22 26C20.6739 26 19.4021 26.5268 18.4645 27.4645C17.5268 28.4021 17 29.6739 17 31V33C17 33.56 17.44 34 18 34H30C30.56 34 31 33.56 31 33V31C31 29.6739 30.4732 28.4021 29.5355 27.4645C28.5979 26.5268 27.3261 26 26 26H22Z" fill="white"/>
</svg>
