<svg width="48" height="48" viewBox="0 0 48 48" fill="none" xmlns="http://www.w3.org/2000/svg">
<rect width="48" height="48" rx="8" fill="#FF6745"/>
<path fill-rule="evenodd" clip-rule="evenodd" d="M22.5559 12L24.009 12.8719C25.8521 13.9614 27.268 15.6474 28.0225 17.6511C28.2785 17.0745 28.583 16.5151 28.8655 15.95L29.9969 17.0814C32.5364 19.621 34.948 23.4268 34.948 27.1231C34.948 32.08 31.8918 35.2227 27.0018 35.7659L25.3987 35.9435L25.7493 34.3692C26.0226 33.1375 26.0722 32.3325 26.0146 31.7686C25.9454 31.0593 25.6086 30.5023 25.1888 29.9487C24.7875 29.4182 24.3896 28.8865 24.0713 28.2995C22.7623 29.334 22.2548 30.2681 22.0922 31.0374C21.8846 32.0223 22.1787 33.0291 22.7162 34.104L23.6642 36L21.5583 35.7659C18.5874 35.436 15.6603 33.4512 14.507 30.5553C13.3018 27.5256 14.1541 23.8593 18.0476 20.4848C20.631 18.2462 21.9988 15.3434 22.5559 12ZM24.092 15.8059C23.2132 18.2739 21.526 20.5228 19.5573 22.2285C16.2001 25.1383 15.8991 27.8151 16.651 29.7019C17.2103 31.1089 18.4178 32.2656 19.8491 32.9219C19.6819 32.1447 19.6772 31.3413 19.8352 30.5622C20.2112 28.7792 21.4937 27.1081 23.9571 25.5685L25.1992 24.7923L25.6628 26.182C26.0688 27.3999 26.9107 28.2614 27.5692 29.3305C28.2935 30.5069 28.4319 31.8562 28.2843 33.2033C31.3059 32.4479 32.6414 30.1563 32.6414 27.1231C32.6414 24.5605 31.096 22.0463 29.5621 20.0811C28.9301 21.4974 27.598 21.9956 26.2983 22.646V20.78C26.2983 19.2012 25.6559 17.2763 24.092 15.807V15.8059Z" fill="white"/>
</svg>
