<svg width="48" height="48" viewBox="0 0 48 48" fill="none" xmlns="http://www.w3.org/2000/svg">
<rect width="48" height="48" rx="8" fill="#FF6745"/>
<path d="M15.4091 36C14.4621 36 13.6572 35.6667 12.9943 35C12.3314 34.3333 12 33.5238 12 32.5714C12 31.619 12.3314 30.8095 12.9943 30.1428C13.6572 29.4762 14.4621 29.1428 15.4091 29.1428C16.3561 29.1428 17.161 29.4762 17.8239 30.1428C18.4867 30.8095 18.8182 31.619 18.8182 32.5714C18.8182 33.5238 18.4867 34.3333 17.8239 35C17.161 35.6667 16.3561 36 15.4091 36ZM15.4091 33.7143C15.7311 33.7143 16.0011 33.6046 16.2193 33.3851C16.4375 33.1657 16.5462 32.8945 16.5455 32.5714C16.5447 32.2484 16.4356 31.9771 16.2182 31.7577C16.0008 31.5383 15.7311 31.4286 15.4091 31.4286C15.0871 31.4286 14.8174 31.5383 14.6 31.7577C14.3826 31.9771 14.2735 32.2484 14.2727 32.5714C14.272 32.8945 14.3811 33.1661 14.6 33.3863C14.8189 33.6065 15.0886 33.7158 15.4091 33.7143ZM25.6364 25.7143V33.7143C25.6364 34.3428 25.414 34.8811 24.9693 35.3291C24.5246 35.7771 23.9894 36.0007 23.3636 36H21.6591C21.3371 36 21.0674 35.8903 20.85 35.6708C20.6326 35.4514 20.5235 35.1802 20.5227 34.8571C20.522 34.5341 20.6311 34.2628 20.85 34.0434C21.0689 33.824 21.3386 33.7143 21.6591 33.7143H23.3636V25.7143C23.3636 25.0857 23.1413 24.5478 22.6966 24.1006C22.2519 23.6533 21.7167 23.4293 21.0909 23.4286H15.4091V25.7143C15.4091 26.0381 15.3 26.3097 15.0818 26.5291C14.8636 26.7486 14.5939 26.8579 14.2727 26.8571C13.9515 26.8564 13.6818 26.7467 13.4636 26.528C13.2455 26.3093 13.1364 26.0381 13.1364 25.7143V23.4286C13.1364 22.8 13.3591 22.2621 13.8045 21.8149C14.25 21.3676 14.7848 21.1436 15.4091 21.1429H16.5455V17.2571C16.5455 15.7905 17.0523 14.5478 18.0659 13.5291C19.0795 12.5105 20.3152 12.0008 21.7727 12C22.8333 12 23.7992 12.2907 24.6705 12.872C25.5417 13.4533 26.1856 14.2293 26.6023 15.2L34.3579 33.7143H35.8636C36.1856 33.7143 36.4557 33.824 36.6739 34.0434C36.892 34.2628 37.0008 34.5341 37 34.8571C36.9992 35.1802 36.8901 35.4518 36.6727 35.672C36.4553 35.8922 36.1856 36.0015 35.8636 36H30.1818C29.8598 36 29.5901 35.8903 29.3727 35.6708C29.1553 35.4514 29.0462 35.1802 29.0455 34.8571C29.0447 34.5341 29.1538 34.2628 29.3727 34.0434C29.5917 33.824 29.8614 33.7143 30.1818 33.7143H31.8864L24.5284 16.1143C24.3011 15.5619 23.9367 15.1192 23.4352 14.7863C22.9337 14.4533 22.3795 14.2865 21.7727 14.2857C20.9394 14.2857 20.2386 14.5714 19.6705 15.1429C19.1023 15.7143 18.8182 16.419 18.8182 17.2571V21.1429H21.0909C22.3409 21.1429 23.411 21.5905 24.3011 22.4857C25.1913 23.3809 25.6364 24.4571 25.6364 25.7143Z" fill="white"/>
</svg>
