<svg width="48" height="48" viewBox="0 0 48 48" fill="none" xmlns="http://www.w3.org/2000/svg">
<rect width="48" height="48" rx="8" fill="#FF6745"/>
<path d="M18.002 36H29.998C32.3365 36 33.5 34.8246 33.5 32.4962V22.3322C33.5 20.8879 33.3419 20.2613 32.4382 19.3433L26.2026 13.0636C25.3447 12.1901 24.6439 12 23.3677 12H18.002C15.675 12 14.5 13.1864 14.5 15.5152V32.4962C14.5 34.8356 15.675 36 18.002 36ZM18.0921 34.198C16.9286 34.198 16.3185 33.5819 16.3185 32.4628V15.5487C16.3185 14.4406 16.9286 13.802 18.1036 13.802H23.119V20.3061C23.119 21.7165 23.8419 22.4105 25.2425 22.4105H31.6816V32.4628C31.6816 33.5819 31.0825 34.198 29.9079 34.198H18.0921ZM25.4459 20.7198C25.0054 20.7198 24.8242 20.5411 24.8242 20.0931V14.1493L31.3307 20.7202L25.4459 20.7198ZM28.1569 25.4887H19.5828C19.1765 25.4887 18.883 25.791 18.883 26.1717C18.883 26.5633 19.177 26.8657 19.5833 26.8657H28.1569C28.2493 26.8672 28.3411 26.8502 28.4267 26.8159C28.5123 26.7815 28.5901 26.7305 28.6555 26.6657C28.7208 26.601 28.7723 26.5239 28.807 26.439C28.8416 26.3542 28.8587 26.2632 28.8572 26.1717C28.8572 25.791 28.5522 25.4887 28.1569 25.4887ZM28.1569 29.3956H19.5828C19.1765 29.3956 18.883 29.7089 18.883 30.1005C18.883 30.4812 19.177 30.7725 19.5833 30.7725H28.1569C28.5522 30.7725 28.8572 30.4812 28.8572 30.1005C28.8572 29.7089 28.5522 29.3956 28.1569 29.3956Z" fill="white"/>
</svg>
