<svg width="48" height="48" viewBox="0 0 48 48" fill="none" xmlns="http://www.w3.org/2000/svg">
<rect width="48" height="48" rx="8" fill="#FF6745"/>
<path d="M24.3332 29.3334C26.5424 29.3334 28.3332 27.5425 28.3332 25.3334C28.3332 23.1242 26.5424 21.3334 24.3332 21.3334C22.1241 21.3334 20.3333 23.1242 20.3333 25.3334C20.3333 27.5425 22.1241 29.3334 24.3332 29.3334Z" stroke="white" stroke-width="2"/>
<path d="M21.3706 36H27.296C31.4573 36 33.5386 36 35.0333 35.02C35.6784 34.5975 36.2338 34.052 36.6679 33.4147C37.6666 31.948 37.6666 29.904 37.6666 25.8187C37.6666 21.7334 37.6666 19.6894 36.6679 18.2227C36.2338 17.5854 35.6784 17.0399 35.0333 16.6174C34.0733 15.9867 32.8706 15.7614 31.0293 15.6814C30.1506 15.6814 29.3946 15.0281 29.2226 14.1814C29.0912 13.5612 28.7496 13.0054 28.2558 12.608C27.7619 12.2105 27.1459 11.9958 26.512 12.0001H22.1546C20.8373 12.0001 19.7026 12.9134 19.444 14.1814C19.272 15.0281 18.516 15.6814 17.6373 15.6814C15.7973 15.7614 14.5947 15.9881 13.6333 16.6174C12.9887 17.04 12.4337 17.5855 12 18.2227C11 19.6894 11 21.732 11 25.8187C11 29.9054 11 31.9467 11.9987 33.4147C12.4307 34.0493 12.9853 34.5947 13.6333 35.02C15.128 36 17.2093 36 21.3706 36Z" stroke="white" stroke-width="2"/>
<path d="M33.6666 21.3334H32.3333" stroke="white" stroke-width="2" stroke-linecap="round"/>
</svg>
